# xmcd
#
# Track frame offsets:
#	150
#	45543
#	90634
#	136348
#	181617
#	212784
#
# Disc length: 3442 seconds
# Revision: 1
# Processed by: cddbd v1.5.2PL0 Copyright (c) Steve Scherf et al.
# Submitted via: dBpowerAMP V12.0
#
DISCID=480d7006
DTITLE=Lester Levenson - The Ultimate Goal Vol 02 CD 01
DYEAR=2000
DGENRE=Home Study
TTITLE0=Happiness Is Love pt 1
TTITLE1=Happiness Is Love pt 2
TTITLE2=Happiness Is Love pt 3
TTITLE3=Happiness Is Love pt 4
TTITLE4=Happiness Is Love pt 5
TTITLE5=Happiness Is Love pt 6
EXTD=
EXTT0=
EXTT1=
EXTT2=
EXTT3=
EXTT4=
EXTT5=
PLAYORDER=
